<svg xmlns="http://www.w3.org/2000/svg" width="124.808" height="104.058" viewBox="0 0 124.808 104.058">
  <g id="error_sign" transform="translate(-164.328 -368.68)">
    <path id="Path_928" data-name="Path 928" d="M305.352,407.737c-15.094-19.622-38.983-18.867-56.147-7.547s-27.336-6.792-41.957,22.641,15.161,61.885,38.143,49.81,25.061,2.252,46.377-4.528S320.446,427.359,305.352,407.737Z" transform="matrix(0.978, 0.208, -0.208, 0.978, 64.211, -57.25)" fill="#f8006b" opacity="0.1"/>
    <path id="Path_929" data-name="Path 929" d="M101.985,15.518C86.891-4.1,63-3.349,45.838,7.971S18.5,1.179,3.88,30.612,19.041,92.5,42.023,80.422,67.085,82.674,88.4,75.894,117.079,35.14,101.985,15.518Z" transform="translate(165.383 389.38) rotate(-10)" fill="#f8006b" opacity="0.08"/>
    <g id="error_icon" transform="translate(205.587 405.929)">
      <path id="x_icon" d="M32.9,28.757,45.38,16.276a2.925,2.925,0,0,0-4.136-4.136L28.763,24.621,16.281,12.14a2.925,2.925,0,1,0-4.136,4.136L24.627,28.757,12.145,41.239a2.925,2.925,0,1,0,4.136,4.136L28.763,32.893,41.244,45.375a2.925,2.925,0,1,0,4.136-4.136Z" transform="translate(-7.433 -13.163)" fill="#f8006b"/>
    </g>
  </g>
</svg>
