<svg xmlns="http://www.w3.org/2000/svg" width="124.808" height="104.058" viewBox="0 0 124.808 104.058">
  <g id="success_sign" transform="translate(-164.328 -368.68)">
    <path id="Path_928" data-name="Path 928" d="M305.352,407.737c-15.094-19.622-38.983-18.867-56.147-7.547s-27.336-6.792-41.957,22.641,15.161,61.885,38.143,49.81,25.061,2.252,46.377-4.528S320.446,427.359,305.352,407.737Z" transform="matrix(0.978, 0.208, -0.208, 0.978, 64.211, -57.25)" fill="#00a136" opacity="0.15"/>
    <path id="Path_929" data-name="Path 929" d="M101.985,15.518C86.891-4.1,63-3.349,45.838,7.971S18.5,1.179,3.88,30.612,19.041,92.5,42.023,80.422,67.085,82.674,88.4,75.894,117.079,35.14,101.985,15.518Z" transform="translate(165.383 389.38) rotate(-10)" fill="#00a136" opacity="0.12"/>
    <path id="right-sign_icon" d="M36.415,56.55a4.4,4.4,0,0,0-3.4,7.177L44.191,77.419A3.994,3.994,0,0,0,47.53,78.9a4.284,4.284,0,0,0,3.362-1.992L74.11,39.517l.012-.019a1.2,1.2,0,0,0-.3-1.414,1.233,1.233,0,0,0-1.792.124l-.026.03L48.585,64.695a1.015,1.015,0,0,1-1.443.078L39.372,57.7a4.381,4.381,0,0,0-2.957-1.151Z" transform="translate(173.145 360.571)" fill="#00a136"/>
  </g>
</svg>
