<svg xmlns="http://www.w3.org/2000/svg" width="18" height="12.177" viewBox="0 0 18 12.177">
  <path id="credit-card_icon" d="M16.679,82.82H1.321A1.322,1.322,0,0,0,0,84.141v9.535A1.322,1.322,0,0,0,1.321,95H16.679A1.322,1.322,0,0,0,18,93.676V84.141A1.322,1.322,0,0,0,16.679,82.82ZM5.537,90.748H7.321a.388.388,0,1,1,0,.775H5.537a.388.388,0,1,1,0-.775ZM1.676,86.861a.388.388,0,0,1,.388-.388H4.386a.388.388,0,0,1,.388.388v1.679a.388.388,0,0,1-.388.388H2.064a.388.388,0,0,1-.388-.388Zm.388,3.888H3.848a.388.388,0,1,1,0,.775H2.064a.388.388,0,1,1,0-.775Zm6.37,2.5H2.064a.388.388,0,1,1,0-.775h6.37a.388.388,0,1,1,0,.775Zm2.36-1.724H9.01a.388.388,0,1,1,0-.775h1.784a.388.388,0,1,1,0,.775Zm3.473,0H12.483a.388.388,0,1,1,0-.775h1.784a.388.388,0,1,1,0,.775Zm1.669-5.662H11.728a.388.388,0,0,1,0-.775h4.209a.388.388,0,0,1,0,.775Z" transform="translate(0 -82.82)" fill="#5f338b"/>
</svg>
