<svg xmlns="http://www.w3.org/2000/svg" width="14" height="14" viewBox="0 0 14 14">
  <g id="cvv_icon" transform="translate(-6 -6)">
    <path id="Path_19" data-name="Path 19" d="M19.125,6H6.875A.878.878,0,0,0,6,6.875v.583H20V6.875A.878.878,0,0,0,19.125,6Z" fill="#5f338b"/>
    <path id="Path_20" data-name="Path 20" d="M6,13H20v1.167H6Z" transform="translate(0 -4.958)" fill="#5f338b"/>
    <path id="Path_21" data-name="Path 21" d="M6,24.25a.878.878,0,0,0,.875.875H8.05c-.006-.1-.009-.193-.009-.292a4.958,4.958,0,0,1,9.917,0c0,.1,0,.2-.009.292h1.175A.878.878,0,0,0,20,24.25V19H6Z" transform="translate(0 -9.208)" fill="#5f338b"/>
    <path id="Path_22" data-name="Path 22" d="M23.75,28.375a4.375,4.375,0,1,0-4.375,4.375A4.38,4.38,0,0,0,23.75,28.375Zm-3.009-1.152a.291.291,0,0,1,.369.184l.307.92.307-.92a.292.292,0,0,1,.553.185l-.583,1.75a.292.292,0,0,1-.553,0l-.583-1.75a.292.292,0,0,1,.184-.369Zm-3.213,1.735a.419.419,0,0,0,.23-.071.292.292,0,1,1,.317.49,1.006,1.006,0,0,1-.547.165,1.171,1.171,0,0,1,0-2.333,1.006,1.006,0,0,1,.547.165.292.292,0,1,1-.317.49.419.419,0,0,0-.23-.071.593.593,0,0,0,0,1.167Zm1.571.384-.583-1.75a.292.292,0,1,1,.553-.185l.307.92.307-.92a.292.292,0,1,1,.553.185l-.583,1.75a.292.292,0,0,1-.553,0Z" transform="translate(-6.375 -12.75)" fill="#5f338b"/>
  </g>
</svg>
