<svg xmlns="http://www.w3.org/2000/svg" width="22" height="22" viewBox="0 0 22 22">
  <g id="fawry_icon" transform="translate(-100.8 -267.8)">
    <path id="Path_14" data-name="Path 14" d="M122.8,278.8a10.979,10.979,0,0,1-18.489,8.032A10.868,10.868,0,0,1,100.8,278.8a10.988,10.988,0,0,1,11-11,10.933,10.933,0,0,1,7.739,3.19A10.984,10.984,0,0,1,122.8,278.8Z" transform="translate(0)" fill="#ffd200"/>
    <path id="Path_15" data-name="Path 15" d="M150.409,370.728l-1.482-.736a16.842,16.842,0,0,1-6.946,6.559A10.894,10.894,0,0,1,137.8,374.1a7.513,7.513,0,0,0,4.181-2.256,15.192,15.192,0,0,0,3.313-4.106l-1.161-.774a.571.571,0,0,1,.123-1.019l5.078-1.765a.561.561,0,0,1,.755.472l.755,5.748A.293.293,0,0,1,150.409,370.728Z" transform="translate(-33.508 -87.252)" fill="#006e9c"/>
    <path id="Path_16" data-name="Path 16" d="M250.159,283.626a.328.328,0,0,1-.632-.066l-.33-1.935-2.5.774a.336.336,0,0,1-.406-.463,19.779,19.779,0,0,0,1.2-3.4,6.153,6.153,0,0,0-.2-3.539,10.893,10.893,0,0,1,4,2.539A14.622,14.622,0,0,1,250.159,283.626Z" transform="translate(-131.728 -6.52)" fill="#006e9c"/>
  </g>
</svg>
