<svg xmlns="http://www.w3.org/2000/svg" width="12.001" height="18" viewBox="0 0 12.001 18">
  <path id="mobile_icon" d="M-1896.5,141h-7a2.5,2.5,0,0,1-2.5-2.5v-13a2.5,2.5,0,0,1,2.5-2.5h7a2.5,2.5,0,0,1,2.5,2.5v13A2.5,2.5,0,0,1-1896.5,141Zm-3.5-3a1,1,0,0,0-1,1,1,1,0,0,0,1,1,1,1,0,0,0,1-1A1,1,0,0,0-1900,138Zm-3.5-12a1.5,1.5,0,0,0-1.5,1.5v8a1.5,1.5,0,0,0,1.5,1.5h7a1.5,1.5,0,0,0,1.5-1.5v-8a1.5,1.5,0,0,0-1.5-1.5Zm2-2a.5.5,0,0,0-.5.5.5.5,0,0,0,.5.5h3a.5.5,0,0,0,.5-.5.5.5,0,0,0-.5-.5Z" transform="translate(1906 -123)" fill="#5f338b"/>
</svg>
